<svg width="111" height="111" viewBox="0 0 111 111" fill="none" xmlns="http://www.w3.org/2000/svg">
<g clip-path="url(#clip0_12_84)">
<path fill-rule="evenodd" clip-rule="evenodd" d="M95.308 95.9919H89.8335V104.735C89.8425 108.185 87.0962 110.992 83.6994 111.001H80.0859C76.7072 110.983 73.9699 108.203 73.9518 104.772V96.0286H36.8765V104.772C36.8585 108.212 34.1031 111.001 30.7154 111.001H27.1018C23.7231 110.983 20.9858 108.203 20.9768 104.772V96.0286H16.3514C13.1534 95.9736 11.6176 94.1937 11.3828 91.1754V19.735C9.57597 19.9185 8.71775 20.3405 8.28412 21.2763V41.6891H4.39953C1.9694 41.6891 0.00903394 39.6891 0 37.2213V25.1662C0 22.7534 1.89713 20.7809 4.27305 20.6983C4.64344 17.1937 6.13404 16.1754 11.5002 15.9185C12.2681 9.79924 16.3695 5.2763 23.8135 2.3497C39.8306 -0.631956 70.2208 -0.925534 87.1956 2.3497C94.6757 5.2763 98.759 9.79924 99.4998 15.9185C104.92 16.1937 106.375 17.2213 106.727 20.6983C109.103 20.7809 110.991 22.7534 111 25.1662V37.2213C111 39.6891 109.031 41.68 106.6 41.6891H102.716V21.2213C102.282 20.3038 101.388 19.9002 99.6172 19.7258V90.4414C99.6172 94.5332 98.3163 95.946 95.299 95.946V95.9919H95.308ZM14.5717 77.8543L14.8247 71.7167C14.9692 70.6433 15.5293 70.1662 16.5321 70.3405C21.5911 73.0836 26.4514 76.2029 31.0677 79.6708C32.0524 80.3314 31.664 81.6066 30.3631 81.368L16.6947 80.3589C15.4661 80.1846 14.5627 79.1112 14.5717 77.8543ZM46.9765 85.7259H64.412C64.8817 85.7259 65.2612 86.1112 65.2612 86.5882V89.5607C65.2612 90.0378 64.8817 90.4231 64.412 90.4231H46.9765C46.5067 90.4231 46.1273 90.0378 46.1273 89.5607V86.5882C46.1273 86.1112 46.5067 85.7259 46.9765 85.7259ZM92.4624 85.7259C93.7181 85.735 94.7208 86.7717 94.7118 88.047C94.7028 89.3222 93.6819 90.3405 92.4262 90.3314C91.1976 90.3222 90.1948 89.313 90.1768 88.0653C90.1768 86.7992 91.1886 85.7717 92.4353 85.7626L92.4624 85.7259ZM17.7969 85.7259C19.0526 85.7442 20.0553 86.7809 20.0373 88.0561C20.0192 89.3314 18.9984 90.3497 17.7427 90.3314C16.514 90.313 15.5203 89.313 15.5022 88.0653C15.5022 86.7901 16.514 85.7626 17.7698 85.7626L17.7969 85.7259ZM96.4644 77.8084L96.2114 71.6708C96.0669 70.5974 95.5068 70.1203 94.5131 70.2947C89.445 73.0378 84.5848 76.157 79.9684 79.6249C78.9837 80.2855 79.3722 81.5607 80.6731 81.3222L94.3414 80.313C95.57 80.1387 96.4734 79.0653 96.4644 77.8084ZM43.5345 5.5974H67.4745C68.2785 5.5974 68.9289 6.26713 68.938 7.08364V11.0011C68.938 11.8176 68.2785 12.4781 67.4745 12.4873H43.5345C42.7305 12.4873 42.0801 11.8176 42.071 11.0011V7.08364C42.071 6.26713 42.7305 5.60658 43.5345 5.5974ZM18.357 17.3405H92.3268C93.3206 17.3405 94.1336 18.1662 94.1336 19.1754V58.7901C94.1336 59.7809 93.3296 60.3405 92.3268 60.6249C66.9505 68.4506 43.7243 68.1295 18.357 60.6249C17.3542 60.3497 16.5502 59.7992 16.5502 58.7901V19.157C16.5502 18.1479 17.3632 17.3222 18.357 17.3222V17.3405Z" fill="#070509"/>
</g>
<defs>
<clipPath id="clip0_12_84">
<rect width="111" height="111" fill="white"/>
</clipPath>
</defs>
</svg>
