<?xml version="1.0" standalone="no"?>
<!DOCTYPE svg PUBLIC "-//W3C//DTD SVG 20010904//EN"
 "http://www.w3.org/TR/2001/REC-SVG-20010904/DTD/svg10.dtd">
<svg version="1.0" xmlns="http://www.w3.org/2000/svg"
 width="450.000000pt" height="309.000000pt" viewBox="0 0 450.000000 309.000000"
 preserveAspectRatio="xMidYMid meet">
<metadata>
Created by potrace 1.10, written by Peter Selinger 2001-2011
</metadata>
<g transform="translate(0.000000,309.000000) scale(0.100000,-0.100000)"
fill="#000000" stroke="none">
<path d="M2096 2334 c-155 -24 -619 -147 -666 -176 -17 -11 -14 -10 130 20
117 25 490 86 622 103 140 17 200 10 291 -33 179 -86 784 -459 939 -580 21
-16 42 -28 47 -26 6 1 -98 83 -230 181 -408 303 -686 476 -825 512 -70 18
-188 18 -308 -1z m176 -15 c-13 -5 -30 -5 -38 -1 -9 5 -1 8 23 9 33 1 35 0 15
-8z m-80 -11 c-4 -4 -21 -3 -37 1 -30 9 -30 9 7 8 20 -1 34 -5 30 -9z m428
-98 c0 -5 -2 -10 -4 -10 -3 0 -8 5 -11 10 -3 6 -1 10 4 10 6 0 11 -4 11 -10z"/>
<path d="M2145 2245 c-239 -31 -660 -116 -737 -148 -21 -9 -46 -30 -57 -48
-13 -22 -37 -39 -77 -55 -72 -29 -90 -52 -103 -129 -22 -128 -23 -171 -6 -189
21 -20 51 -21 59 0 3 9 6 52 6 97 1 111 12 156 50 190 18 16 33 27 35 25 2 -2
-8 -36 -21 -76 -14 -41 -24 -81 -22 -90 2 -10 12 8 22 37 30 94 74 170 109
191 67 42 253 85 507 119 203 27 378 39 390 27 20 -20 9 -33 -43 -49 -79 -25
-146 -71 -163 -114 -21 -49 -41 -159 -49 -268 -7 -83 -5 -92 15 -117 21 -28
53 -35 79 -19 10 6 16 52 22 175 9 185 18 233 51 263 27 24 89 63 102 63 5 0
6 -110 3 -262 -6 -260 -23 -431 -49 -486 -29 -62 -155 -94 -429 -112 -343 -21
-595 -8 -679 35 l-33 17 6 -173 c7 -185 22 -277 53 -330 58 -98 333 -159 715
-159 206 0 325 17 417 60 78 37 82 56 4 24 -213 -86 -750 -67 -1026 36 -47 18
-58 27 -76 64 -29 62 -50 168 -50 264 0 108 8 123 57 111 117 -29 685 -19 916
16 131 20 142 25 155 77 25 100 56 412 68 694 8 173 0 215 -46 239 -33 17 -40
17 -175 0z m39 -173 c-25 -16 -43 -117 -49 -277 -2 -49 -4 -100 -4 -112 -1
-13 -10 -24 -22 -28 -27 -9 -48 20 -43 60 2 16 6 55 8 85 5 62 12 95 21 111 4
6 7 26 7 45 0 19 4 31 9 28 5 -3 7 9 5 26 -2 17 -2 29 1 27 2 -3 18 9 35 25
17 16 33 26 37 23 3 -3 1 -9 -5 -13z m-976 -272 c-1 -38 -5 -70 -10 -70 -5 0
-6 -10 -3 -21 6 -18 5 -20 -6 -9 -12 11 -12 25 0 91 8 44 16 79 17 79 1 0 2
-31 2 -70z m1059 -494 c-5 -15 -69 -46 -85 -41 -7 3 -23 0 -37 -5 -14 -5 -35
-6 -47 -1 l-22 8 22 5 c12 4 22 2 22 -2 0 -4 9 -6 20 -3 11 3 20 10 20 15 0 6
9 8 20 5 11 -3 18 -1 15 3 -3 5 7 12 22 17 37 13 54 12 50 -1z m-1064 -46 c7
0 1 -6 -13 -14 -29 -15 -41 -12 -33 10 3 8 12 13 20 10 8 -3 20 -6 26 -6z
m867 -4 c0 -2 -11 -6 -25 -8 -13 -3 -22 -1 -19 3 5 9 44 13 44 5z m-256 -18
c-3 -4 -9 -8 -15 -8 -5 0 -9 4 -9 8 0 5 7 9 15 9 8 0 12 -4 9 -9z m126 4 c0
-9 -78 -8 -87 2 -4 3 15 6 40 6 26 0 47 -4 47 -8z m-633 -8 c-3 -3 -12 -4 -19
-1 -8 3 -5 6 6 6 11 1 17 -2 13 -5z m400 0 c-3 -3 -12 -4 -19 -1 -8 3 -5 6 6
6 11 1 17 -2 13 -5z"/>
<path d="M2451 2129 c-28 -93 -50 -333 -72 -795 -11 -228 -9 -346 4 -204 38
433 52 565 74 745 14 116 27 212 29 214 5 5 68 -28 269 -144 88 -50 168 -95
178 -98 9 -4 17 -11 17 -16 0 -7 -9 -7 -26 -1 -14 6 -59 10 -100 10 -92 0 -99
-6 -165 -146 -61 -129 -64 -158 -4 -44 24 47 60 100 80 118 34 31 37 32 122
32 49 0 126 -5 172 -10 84 -9 111 -7 75 7 -10 4 -95 55 -189 113 -233 146
-430 260 -448 260 -2 0 -9 -18 -16 -41z m65 -18 c1 -6 0 -7 -3 -1 -3 6 -11 6
-22 0 -13 -6 -18 -5 -18 4 0 16 40 14 43 -3z m54 -25 c0 -2 -9 -2 -20 1 -11 3
-20 9 -20 15 0 5 9 4 20 -2 11 -6 20 -12 20 -14z m410 -251 c7 -9 8 -15 2 -15
-5 0 -12 7 -16 15 -3 8 -4 15 -2 15 2 0 9 -7 16 -15z"/>
<path d="M2673 1591 c-15 -39 -11 -48 25 -63 91 -36 559 -188 571 -186 8 2
-57 27 -144 57 -180 60 -379 136 -412 157 -12 7 -23 26 -25 41 l-3 28 -12 -34z"/>
<path d="M2030 1097 c-31 -13 -80 -37 -110 -54 -30 -17 -94 -47 -143 -67 -98
-41 -175 -47 -279 -22 -69 16 -101 36 -130 81 -27 41 -62 62 -114 71 -58 9
-72 -11 -45 -65 11 -22 31 -43 43 -46 13 -4 32 -16 43 -26 11 -10 38 -22 60
-28 22 -5 60 -17 85 -26 98 -37 329 -36 417 0 20 8 67 15 107 15 49 0 84 7
115 20 24 11 58 20 76 20 19 0 46 5 62 11 30 11 88 62 104 91 27 50 -185 68
-291 25z m276 -10 c9 -9 -42 -64 -76 -81 -14 -7 -48 -16 -77 -19 -29 -3 -65
-13 -82 -21 -18 -10 -56 -16 -96 -16 l-66 0 27 36 c30 39 101 92 142 105 32
10 217 7 228 -4z m-982 -26 c25 -24 63 -98 54 -106 -8 -8 -61 14 -73 29 -5 7
-23 19 -39 27 -17 8 -39 29 -50 48 l-20 34 53 -5 c34 -3 59 -12 75 -27z m587
-64 c-6 -8 -7 -18 -3 -22 4 -5 -1 -5 -11 -2 -10 4 -16 3 -13 -2 3 -5 -2 -15
-11 -22 -14 -12 -16 -12 -8 1 5 10 1 9 -13 -3 -12 -11 -26 -16 -33 -11 -8 5
-10 3 -4 -6 6 -10 4 -12 -8 -7 -10 4 -17 1 -17 -6 0 -7 -7 -4 -14 6 -10 13
-15 15 -19 5 -2 -7 -8 -10 -12 -6 -13 12 6 29 26 23 10 -4 19 -3 19 2 0 4 15
14 33 21 17 7 43 19 57 27 33 17 45 18 31 2z m-184 -83 c-3 -3 -12 -4 -19 -1
-8 3 -5 6 6 6 11 1 17 -2 13 -5z"/>
</g>
</svg>
