 <svg  version="1.0" xmlns="http://www.w3.org/2000/svg"  width="300.000000pt" height="131.000000pt" viewBox="0 0 300.000000 131.000000"  preserveAspectRatio="xMidYMid meet">  <g transform="translate(0.000000,131.000000) scale(0.100000,-0.100000)" fill="#f7931c" stroke="none"> <path d="M1125 1013 c-113 -16 -277 -73 -381 -132 l-51 -30 -12 -73 c-19 -117 -25 -285 -12 -368 17 -108 27 -105 23 8 -2 54 1 124 8 155 14 71 67 179 116 235 40 47 129 111 188 136 51 21 175 46 231 46 33 0 45 4 45 15 0 12 -13 15 -62 14 -35 -1 -76 -4 -93 -6z m-287 -140 c-64 -69 -87 -98 -104 -129 -25 -46 -33 -43 -27 9 10 71 19 85 80 116 73 38 84 38 51 4z"/> <path d="M1317 1004 c-16 -52 -29 -281 -23 -394 9 -169 22 -213 22 -74 0 131 25 226 79 297 76 99 179 127 399 107 217 -19 479 -77 696 -156 39 -14 74 -24 76 -21 4 4 -96 43 -211 83 -78 27 -282 82 -395 108 -179 40 -302 56 -476 63 -153 6 -162 5 -167 -13z m243 -24 c8 0 -10 -10 -39 -22 -30 -11 -60 -24 -65 -29 -49 -37 -96 -84 -101 -100 -20 -61 -33 25 -18 114 9 55 11 56 223 37z"/> <path d="M2181 679 c-190 -23 -304 -73 -581 -258 -100 -67 -217 -139 -259 -160 -211 -107 -383 -116 -557 -31 -43 21 -80 37 -82 36 -17 -18 72 -90 164 -134 53 -24 70 -27 164 -27 203 0 313 51 740 347 119 82 176 111 287 145 82 25 101 27 263 27 193 0 271 -15 398 -74 34 -16 62 -24 62 -19 0 6 -46 32 -103 59 -161 77 -335 108 -496 89z"/> </g> </svg> 